<svg width="11" height="11" viewBox="0 0 11 11" fill="none" xmlns="http://www.w3.org/2000/svg">
<circle cx="5.5" cy="5.5" r="5.5" fill="white"/>
<path d="M6.23789 5.49983L8.4881 3.25454C8.58664 3.15599 8.642 3.02232 8.642 2.88294C8.642 2.74357 8.58664 2.6099 8.4881 2.51134C8.38956 2.41279 8.25591 2.35742 8.11655 2.35742C7.9772 2.35742 7.84355 2.41279 7.74501 2.51134L5.50003 4.76187L3.25506 2.51134C3.15652 2.41279 3.02287 2.35742 2.88352 2.35742C2.74416 2.35742 2.61051 2.41279 2.51197 2.51134C2.41343 2.6099 2.35807 2.74357 2.35807 2.88294C2.35807 3.02232 2.41343 3.15599 2.51197 3.25454L4.76218 5.49983L2.51197 7.74513C2.46292 7.79378 2.42399 7.85167 2.39742 7.91544C2.37086 7.97922 2.35718 8.04763 2.35718 8.11672C2.35718 8.18582 2.37086 8.25422 2.39742 8.318C2.42399 8.38178 2.46292 8.43967 2.51197 8.48832C2.56062 8.53738 2.6185 8.57631 2.68227 8.60289C2.74603 8.62946 2.81443 8.64314 2.88352 8.64314C2.9526 8.64314 3.021 8.62946 3.08477 8.60289C3.14854 8.57631 3.20641 8.53738 3.25506 8.48832L5.50003 6.2378L7.74501 8.48832C7.79366 8.53738 7.85153 8.57631 7.9153 8.60289C7.97907 8.62946 8.04747 8.64314 8.11655 8.64314C8.18564 8.64314 8.25403 8.62946 8.3178 8.60289C8.38157 8.57631 8.43945 8.53738 8.4881 8.48832C8.53715 8.43967 8.57608 8.38178 8.60265 8.318C8.62921 8.25422 8.64289 8.18582 8.64289 8.11672C8.64289 8.04763 8.62921 7.97922 8.60265 7.91544C8.57608 7.85167 8.53715 7.79378 8.4881 7.74513L6.23789 5.49983Z" fill="black"/>
</svg>
