<svg width="33" height="34" viewBox="0 0 33 34" fill="none" xmlns="http://www.w3.org/2000/svg">
<path d="M23.8964 15.8652C18.8895 15.8652 14.793 19.9452 14.793 24.9318C14.793 29.9185 18.8895 33.9985 23.8964 33.9985C28.9033 33.9985 32.9999 29.9185 32.9999 24.9318C32.9999 19.9452 28.9033 15.8652 23.8964 15.8652ZM28.1068 25.8385C27.8792 26.0652 27.6516 26.1785 27.3102 26.1785C26.9688 26.1785 26.7412 26.0652 26.5137 25.8385L25.0343 24.3652V29.4652C25.0343 30.1452 24.5792 30.5985 23.8964 30.5985C23.2137 30.5985 22.7585 30.1452 22.7585 29.4652V24.3652L21.2792 25.8385C20.824 26.2918 20.1412 26.2918 19.6861 25.8385C19.2309 25.3852 19.2309 24.7052 19.6861 24.2519L23.0999 20.7385C23.3275 20.5119 23.555 20.3985 23.8964 20.3985C24.2378 20.3985 24.4654 20.5119 24.693 20.7385L28.1068 24.2519C28.5619 24.7052 28.5619 25.3852 28.1068 25.8385Z" fill="#495057"/>
<path d="M15.9312 0.679688V6.79965H22.076L15.9312 0.679688Z" fill="#495057"/>
<path d="M19.9138 9.06661H14.7931C14.1103 9.06661 13.6552 8.61328 13.6552 7.93329V0H1.13793C0.455172 0 0 0.453331 0 1.13333V30.5998C0 31.2798 0.455172 31.7331 1.13793 31.7331H14.7931C13.3138 29.8065 12.5172 27.5398 12.5172 24.9332C12.5172 19.0399 17.069 14.2799 22.7586 13.7133V11.8999C22.7586 10.3133 21.5069 9.06661 19.9138 9.06661Z" fill="#495057"/>
</svg>
