<svg width="14" height="14" viewBox="0 0 14 14" fill="none" xmlns="http://www.w3.org/2000/svg">
<path d="M0.870117 13.6156C0.870117 13.8365 1.05904 14.0003 1.27746 14.0003H12.7227C12.9411 14.0003 13.13 13.8365 13.13 13.6156V4.32031H0.870117V13.6156ZM4.27125 5.92031H9.6498C9.97741 5.92031 10.243 6.18897 10.243 6.52032C10.243 6.85167 9.97741 7.12032 9.6498 7.12032H4.27125C3.94364 7.12032 3.67803 6.85167 3.67803 6.52032C3.67803 6.18897 3.94364 5.92031 4.27125 5.92031ZM3.67803 9.00034C3.67803 8.77942 3.85508 8.60034 4.0735 8.60034H9.84753C10.0659 8.60034 10.243 8.77942 10.243 9.00034V11.6003C10.243 11.8213 10.0659 12.0003 9.84753 12.0003H4.07353C3.8551 12.0003 3.67805 11.8213 3.67805 11.6003V9.00034H3.67803Z" fill="#495057"/>
<path d="M13.6158 0H0.384235C0.165813 0 0 0.163836 0 0.384754V2.70432C0 2.92521 0.165785 3.11999 0.38418 3.11999H0.384208H0.88192H13.1181H13.6158H13.6158C13.8342 3.11999 14 2.92518 14 2.70432V0.384754C14 0.163836 13.8342 0 13.6158 0Z" fill="#495057"/>
</svg>
