<svg width="422" height="120" viewBox="0 0 422 120" fill="none" xmlns="http://www.w3.org/2000/svg">
<g clip-path="url(#clip0_653_1079)">
<path d="M88.6957 120H5.21742C2.33578 120 0 117.664 0 114.783V5.21742C0 2.33578 2.33578 0 5.21742 0H88.6957C91.5773 0 93.9131 2.33578 93.9131 5.21742V114.783C93.9131 117.664 91.5771 120 88.6957 120Z" fill="white"/>
<path d="M15 93.9129C15 94.9934 14.1239 95.8695 13.0434 95.8695H12.5217C11.4412 95.8695 10.5652 94.9934 10.5652 93.9129C10.5652 92.8325 11.4412 91.9564 12.5217 91.9564H13.0434C14.1239 91.9564 15 92.8322 15 93.9129ZM23.4783 91.9564H22.9566C21.8761 91.9564 21 92.8325 21 93.9129C21 94.9934 21.8761 95.8695 22.9566 95.8695H23.4783C24.5588 95.8695 25.4348 94.9934 25.4348 93.9129C25.4348 92.8322 24.5588 91.9564 23.4783 91.9564ZM60 54.1304H13.0434C11.963 54.1304 11.0869 55.0064 11.0869 56.0869C11.0869 57.1674 11.963 58.0435 13.0434 58.0435H60C61.0805 58.0435 61.9566 57.1674 61.9566 56.0869C61.9566 55.0064 61.0805 54.1304 60 54.1304ZM60 35.8693H13.0434C11.963 35.8693 11.0869 36.7454 11.0869 37.8258C11.0869 38.9063 11.963 39.7824 13.0434 39.7824H60C61.0805 39.7824 61.9566 38.9063 61.9566 37.8258C61.9566 36.7454 61.0805 35.8693 60 35.8693ZM33.9131 72.3912H13.0434C11.963 72.3912 11.0869 73.2673 11.0869 74.3478C11.0869 75.4282 11.963 76.3043 13.0434 76.3043H33.9129C34.9934 76.3043 35.8695 75.4282 35.8695 74.3478C35.8695 73.2673 34.9936 72.3912 33.9131 72.3912ZM13.0434 21.5215H60C61.0805 21.5215 61.9566 20.6454 61.9566 19.565C61.9566 18.4845 61.0805 17.6084 60 17.6084H13.0434C11.963 17.6084 11.0869 18.4845 11.0869 19.565C11.0869 20.6454 11.963 21.5215 13.0434 21.5215Z" fill="#C1C1C1"/>
<path d="M71.2936 20.4399C70.8103 19.4733 71.202 18.2982 72.1685 17.8151C73.1351 17.3314 74.3102 17.7235 74.7933 18.69L76.7759 22.6552L78.9712 13.8729C79.233 12.8246 80.2973 12.1878 81.3438 12.4493C82.3922 12.7114 83.0297 13.7736 82.7674 14.8219L80.512 23.8442C80.0857 25.5488 78.5613 26.7387 76.8049 26.7387C75.3483 26.7387 74.0384 25.9292 73.3868 24.6263L71.2936 20.4399ZM81.3441 48.9715C80.2978 48.71 79.2335 49.3468 78.9715 50.3951L76.7761 59.1774L74.7935 55.2122C74.3105 54.2457 73.1351 53.8536 72.1688 54.3373C71.2022 54.8204 70.8103 55.9957 71.2938 56.9621L73.387 61.1485C74.0384 62.4516 75.3483 63.2609 76.8052 63.2609C78.5618 63.2609 80.0864 62.0705 80.5123 60.3664L82.7677 51.3441C83.0299 50.2957 82.3922 49.2336 81.3441 48.9715Z" fill="#6BAF6E"/>
<path d="M57.3914 84.7825V103.043H49.5654L37.6254 99.0632C35.4084 98.3244 33.9131 96.2497 33.9131 93.9128C33.9131 91.5758 35.4084 89.5011 37.6254 88.7624L49.5654 84.7822H57.3914V84.7825Z" fill="#F4C064"/>
<path d="M41.7391 100.435L37.6252 99.0637C35.4082 98.325 33.9129 96.2503 33.9129 93.9133C33.9129 91.5764 35.4082 89.5017 37.6252 88.7629L41.7391 87.3916V100.435Z" fill="#828282"/>
<path d="M52.174 82.1738H108.261C114.744 82.1738 120 87.4295 120 93.913C120 100.396 114.744 105.652 108.261 105.652H52.174C50.7333 105.652 49.5654 104.484 49.5654 103.044V84.7827C49.5652 83.3417 50.7331 82.1738 52.174 82.1738Z" fill="#F4C064"/>
<path d="M120 93.913H49.5652V84.7824C49.5652 83.3417 50.733 82.1738 52.1737 82.1738H108.261C114.744 82.1738 120 87.4295 120 93.913Z" fill="#FFE77C"/>
<path d="M120 93.913C120 100.396 114.744 105.652 108.261 105.652H101.739V82.1738H108.261C114.744 82.1738 120 87.4295 120 93.913Z" fill="#FFC0CF"/>
<path d="M108.261 93.913H101.739V82.1738H108.261C112.605 82.1738 116.396 84.5354 118.426 88.0433C116.396 91.5512 112.605 93.913 108.261 93.913Z" fill="#FFD7DF"/>
</g>
<g clip-path="url(#clip1_653_1079)">
<path d="M406.348 120H312.435C309.553 120 307.217 117.665 307.217 114.783V20.8698C307.217 17.9881 309.553 15.6523 312.435 15.6523H406.348C409.23 15.6523 411.565 17.9881 411.565 20.8698V114.783C411.565 117.665 409.229 120 406.348 120Z" fill="#99774F"/>
<path d="M411.565 23.4785V112.174H307.217V23.4785H411.565Z" fill="#7F5D3B"/>
<path d="M411.565 104.348H307.217C304.336 104.348 302 102.012 302 99.1309V20.8698C302 17.9881 304.336 15.6523 307.217 15.6523H411.565C414.447 15.6523 416.783 17.9881 416.783 20.8698V99.1306C416.783 102.012 414.447 104.348 411.565 104.348Z" fill="#FDEEC3"/>
<path d="M416.783 33.9132V49.5655H393.304C391.864 49.5655 390.696 48.3976 390.696 46.9569V36.5221C390.696 35.0814 391.864 33.9135 393.304 33.9135H416.783V33.9132ZM320.261 76.3044H309.826C308.746 76.3044 307.869 77.1805 307.869 78.261C307.869 79.3414 308.746 80.2175 309.826 80.2175H320.261C321.341 80.2175 322.217 79.3414 322.217 78.261C322.217 77.1805 321.341 76.3044 320.261 76.3044ZM309.826 38.4784H320.261C321.341 38.4784 322.217 37.6023 322.217 36.5218C322.217 35.4414 321.341 34.5653 320.261 34.5653H309.826C308.746 34.5653 307.869 35.4414 307.869 36.5218C307.869 37.6023 308.746 38.4784 309.826 38.4784ZM408.957 58.0436H382.217V31.3044C382.217 30.2239 381.341 29.3479 380.261 29.3479C379.18 29.3479 378.304 30.2239 378.304 31.3044V58.0436H340.478V31.3044C340.478 30.2239 339.602 29.3479 338.522 29.3479C337.441 29.3479 336.565 30.2239 336.565 31.3044V58.0436H309.826C308.746 58.0436 307.869 58.9197 307.869 60.0001C307.869 61.0806 308.746 61.9567 309.826 61.9567H336.565V91.3044C336.565 92.3849 337.441 93.261 338.522 93.261C339.602 93.261 340.478 92.3849 340.478 91.3044V61.9567H378.304V91.3044C378.304 92.3849 379.18 93.261 380.261 93.261C381.341 93.261 382.217 92.3849 382.217 91.3044V61.9567H408.957C410.037 61.9567 410.913 61.0806 410.913 60.0001C410.913 58.9197 410.037 58.0436 408.957 58.0436ZM309.826 30.6524H330.695C331.776 30.6524 332.652 29.7763 332.652 28.6958C332.652 27.6154 331.776 26.7393 330.695 26.7393H309.826C308.746 26.7393 307.869 27.6154 307.869 28.6958C307.869 29.7763 308.746 30.6524 309.826 30.6524ZM330.696 68.4784H309.826C308.746 68.4784 307.869 69.3545 307.869 70.435C307.869 71.5154 308.746 72.3915 309.826 72.3915H330.695C331.776 72.3915 332.652 71.5154 332.652 70.435C332.652 69.3545 331.776 68.4784 330.696 68.4784ZM369.826 68.4784H348.957C347.876 68.4784 347 69.3545 347 70.435C347 71.5154 347.876 72.3915 348.957 72.3915H369.826C370.906 72.3915 371.783 71.5154 371.783 70.435C371.783 69.3545 370.907 68.4784 369.826 68.4784ZM359.391 76.3044H348.957C347.876 76.3044 347 77.1805 347 78.261C347 79.3414 347.876 80.2175 348.957 80.2175H359.391C360.472 80.2175 361.348 79.3414 361.348 78.261C361.348 77.1805 360.472 76.3044 359.391 76.3044Z" fill="#C1B291"/>
<path d="M422 31.3039V41.7388C422 43.1795 420.832 44.3473 419.391 44.3473H393.304C391.864 44.3473 390.696 43.1795 390.696 41.7388V31.3039C390.696 29.8632 391.864 28.6953 393.304 28.6953H419.391C420.832 28.6953 422 29.8632 422 31.3039Z" fill="#BBFFAB"/>
<path d="M413.522 36.522C413.522 37.6025 412.646 38.4786 411.565 38.4786H398.522C397.441 38.4786 396.565 37.6025 396.565 36.522C396.565 35.4415 397.441 34.5654 398.522 34.5654H411.565C412.646 34.5654 413.522 35.4415 413.522 36.522Z" fill="#6BAF6E"/>
<path d="M373.757 23.4783H345.026C341.688 23.4783 339.208 20.3876 339.932 17.1291L342.831 4.08563C343.362 1.69852 345.479 0 347.924 0H370.858C373.303 0 375.421 1.69852 375.951 4.08539L378.85 17.1288C379.574 20.3876 377.095 23.4783 373.757 23.4783Z" fill="#9B9B9B"/>
<path d="M370.858 0C373.304 0 375.421 1.69852 375.952 4.08539L377.942 13.0434H340.841L342.831 4.08539C343.362 1.69852 345.479 0 347.924 0H370.858Z" fill="#828282"/>
<path d="M376.783 7.82617L377.942 13.0436H340.841L342 7.82617H376.783Z" fill="#666666"/>
</g>
<g clip-path="url(#clip2_653_1079)">
<path d="M263.174 36.5216H250.131V18.2607H263.174C264.615 18.2607 265.783 19.4286 265.783 20.8693V33.9128C265.783 35.3537 264.615 36.5216 263.174 36.5216Z" fill="#A7E5CB"/>
<path d="M268.391 23.4786H252.739V5.21777H268.391C269.832 5.21777 271 6.38566 271 7.82637V20.8698C271 22.3107 269.832 23.4786 268.391 23.4786Z" fill="#FF9CAB"/>
<path d="M250.131 120H156.217C153.336 120 151 117.664 151 114.783V5.21742C151 2.33578 153.336 0 156.217 0H250.131C253.012 0 255.348 2.33578 255.348 5.21742V114.783C255.348 117.664 253.012 120 250.131 120Z" fill="#769CA5"/>
<path d="M156.217 0H166.652V120H156.217C153.336 120 151 117.664 151 114.783V5.21742C151 2.33578 153.336 0 156.217 0ZM260.565 44.3477H226.652C218.008 44.3477 211 51.3555 211 60C211 68.6445 218.008 75.6523 226.652 75.6523H260.565C263.447 75.6523 265.783 73.3165 265.783 70.4348V49.5654C265.783 46.6838 263.447 44.3477 260.565 44.3477Z" fill="#5B7A7F"/>
<path d="M234.478 60.0002C234.478 63.6021 231.558 66.522 227.957 66.522C224.355 66.522 221.435 63.6021 221.435 60.0002C221.435 56.3984 224.355 53.4785 227.957 53.4785C231.558 53.4785 234.478 56.3984 234.478 60.0002Z" fill="#F4C064"/>
<path d="M231.869 60C231.869 62.161 230.118 63.9132 227.956 63.9132C225.795 63.9132 224.043 62.161 224.043 60C224.043 57.8391 225.795 56.0869 227.957 56.0869C230.118 56.0869 231.869 57.8391 231.869 60Z" fill="#FFE77C"/>
</g>
<defs>
<clipPath id="clip0_653_1079">
<rect width="120" height="120" fill="white"/>
</clipPath>
<clipPath id="clip1_653_1079">
<rect width="120" height="120" fill="white" transform="translate(302)"/>
</clipPath>
<clipPath id="clip2_653_1079">
<rect width="120" height="120" fill="white" transform="translate(151)"/>
</clipPath>
</defs>
</svg>
